<?xml version="1.0" encoding="UTF-8" standalone="no"?>
<!DOCTYPE svg PUBLIC "-//W3C//DTD SVG 1.1//EN"
 "http://www.w3.org/Graphics/SVG/1.1/DTD/svg11.dtd">
<!-- Generated by graphviz version 12.0.0 (0)
 -->
<!-- Pages: 1 -->
<svg width="1448pt" height="276pt"
 viewBox="0.00 0.00 1448.39 275.63" xmlns="http://www.w3.org/2000/svg" xmlns:xlink="http://www.w3.org/1999/xlink">
<g id="graph0" class="graph" transform="scale(1 1) rotate(0) translate(4 271.63)">
<polygon fill="white" stroke="none" points="-4,4 -4,-271.63 1444.39,-271.63 1444.39,4 -4,4"/>
<g id="clust1" class="cluster">
<title>clustercompartment (3)</title>
<path fill="none" stroke="black" d="M1314.39,-137.82C1314.39,-137.82 1420.39,-137.82 1420.39,-137.82 1426.39,-137.82 1432.39,-143.82 1432.39,-149.82 1432.39,-149.82 1432.39,-247.63 1432.39,-247.63 1432.39,-253.63 1426.39,-259.63 1420.39,-259.63 1420.39,-259.63 1314.39,-259.63 1314.39,-259.63 1308.39,-259.63 1302.39,-253.63 1302.39,-247.63 1302.39,-247.63 1302.39,-149.82 1302.39,-149.82 1302.39,-143.82 1308.39,-137.82 1314.39,-137.82"/>
<text text-anchor="middle" x="1378.27" y="-145.02" font-family="Times,serif" font-size="14.00">compartment (3)</text>
</g>
<g id="clust2" class="cluster">
<title>clustertime (101) x compartment (3)</title>
<path fill="none" stroke="black" d="M633.39,-8C633.39,-8 789.39,-8 789.39,-8 795.39,-8 801.39,-14 801.39,-20 801.39,-20 801.39,-117.82 801.39,-117.82 801.39,-123.82 795.39,-129.82 789.39,-129.82 789.39,-129.82 633.39,-129.82 633.39,-129.82 627.39,-129.82 621.39,-123.82 621.39,-117.82 621.39,-117.82 621.39,-20 621.39,-20 621.39,-14 627.39,-8 633.39,-8"/>
<text text-anchor="middle" x="711.27" y="-15.2" font-family="Times,serif" font-size="14.00">time (101) x compartment (3)</text>
</g>
<!-- m_Z -->
<g id="node1" class="node">
<title>m_Z</title>
<ellipse fill="none" stroke="black" cx="56.39" cy="-210.98" rx="56.39" ry="40.66"/>
<text text-anchor="middle" x="56.39" y="-222.43" font-family="Times,serif" font-size="14.00">m_Z</text>
<text text-anchor="middle" x="56.39" y="-205.93" font-family="Times,serif" font-size="14.00">~</text>
<text text-anchor="middle" x="56.39" y="-189.43" font-family="Times,serif" font-size="14.00">LogNormal</text>
</g>
<!-- likelihood -->
<g id="node12" class="node">
<title>likelihood</title>
<ellipse fill="none" stroke="black" cx="711.39" cy="-81.16" rx="79.73" ry="40.66"/>
<text text-anchor="middle" x="711.39" y="-92.61" font-family="Times,serif" font-size="14.00">likelihood</text>
<text text-anchor="middle" x="711.39" y="-76.11" font-family="Times,serif" font-size="14.00">~</text>
<text text-anchor="middle" x="711.39" y="-59.61" font-family="Times,serif" font-size="14.00">TruncatedNormal</text>
</g>
<!-- m_Z&#45;&gt;likelihood -->
<g id="edge1" class="edge">
<title>m_Z&#45;&gt;likelihood</title>
<path fill="none" stroke="black" d="M80.3,-174.08C91.4,-160.37 105.83,-146.07 122.39,-137.82 207.38,-95.49 476.78,-85.27 619.93,-82.86"/>
<polygon fill="black" stroke="black" points="619.81,-86.36 629.76,-82.7 619.7,-79.36 619.81,-86.36"/>
</g>
<!-- m_P -->
<g id="node2" class="node">
<title>m_P</title>
<ellipse fill="none" stroke="black" cx="187.39" cy="-210.98" rx="56.39" ry="40.66"/>
<text text-anchor="middle" x="187.39" y="-222.43" font-family="Times,serif" font-size="14.00">m_P</text>
<text text-anchor="middle" x="187.39" y="-205.93" font-family="Times,serif" font-size="14.00">~</text>
<text text-anchor="middle" x="187.39" y="-189.43" font-family="Times,serif" font-size="14.00">LogNormal</text>
</g>
<!-- m_P&#45;&gt;likelihood -->
<g id="edge2" class="edge">
<title>m_P&#45;&gt;likelihood</title>
<path fill="none" stroke="black" d="M211.72,-173.92C222.8,-160.36 237.09,-146.21 253.39,-137.82 315.51,-105.84 505.63,-91.6 620.47,-85.77"/>
<polygon fill="black" stroke="black" points="620.35,-89.28 630.17,-85.29 620.01,-82.29 620.35,-89.28"/>
</g>
<!-- r -->
<g id="node3" class="node">
<title>r</title>
<ellipse fill="none" stroke="black" cx="318.39" cy="-210.98" rx="56.39" ry="40.66"/>
<text text-anchor="middle" x="318.39" y="-222.43" font-family="Times,serif" font-size="14.00">r</text>
<text text-anchor="middle" x="318.39" y="-205.93" font-family="Times,serif" font-size="14.00">~</text>
<text text-anchor="middle" x="318.39" y="-189.43" font-family="Times,serif" font-size="14.00">LogNormal</text>
</g>
<!-- r&#45;&gt;likelihood -->
<g id="edge3" class="edge">
<title>r&#45;&gt;likelihood</title>
<path fill="none" stroke="black" d="M342.92,-174.31C354.03,-160.81 368.29,-146.6 384.39,-137.82 424.29,-116.06 539.28,-99.97 621.61,-90.84"/>
<polygon fill="black" stroke="black" points="621.93,-94.32 631.49,-89.76 621.17,-87.36 621.93,-94.32"/>
</g>
<!-- k_P -->
<g id="node4" class="node">
<title>k_P</title>
<ellipse fill="none" stroke="black" cx="449.39" cy="-210.98" rx="56.39" ry="40.66"/>
<text text-anchor="middle" x="449.39" y="-222.43" font-family="Times,serif" font-size="14.00">k_P</text>
<text text-anchor="middle" x="449.39" y="-205.93" font-family="Times,serif" font-size="14.00">~</text>
<text text-anchor="middle" x="449.39" y="-189.43" font-family="Times,serif" font-size="14.00">LogNormal</text>
</g>
<!-- k_P&#45;&gt;likelihood -->
<g id="edge4" class="edge">
<title>k_P&#45;&gt;likelihood</title>
<path fill="none" stroke="black" d="M475.05,-174.43C486.13,-161.27 500.08,-147.27 515.39,-137.82 548.26,-117.52 588.75,-104.41 624.38,-96.05"/>
<polygon fill="black" stroke="black" points="624.8,-99.54 633.79,-93.94 623.27,-92.71 624.8,-99.54"/>
</g>
<!-- N0 -->
<g id="node5" class="node">
<title>N0</title>
<ellipse fill="none" stroke="black" cx="580.39" cy="-210.98" rx="56.39" ry="40.66"/>
<text text-anchor="middle" x="580.39" y="-222.43" font-family="Times,serif" font-size="14.00">N0</text>
<text text-anchor="middle" x="580.39" y="-205.93" font-family="Times,serif" font-size="14.00">~</text>
<text text-anchor="middle" x="580.39" y="-189.43" font-family="Times,serif" font-size="14.00">LogNormal</text>
</g>
<!-- N0&#45;&gt;likelihood -->
<g id="edge8" class="edge">
<title>N0&#45;&gt;likelihood</title>
<path fill="none" stroke="black" d="M609.8,-176.13C620.94,-163.76 633.95,-149.86 646.39,-137.82 651.3,-133.07 656.53,-128.24 661.83,-123.5"/>
<polygon fill="black" stroke="black" points="663.83,-126.4 669.01,-117.16 659.2,-121.15 663.83,-126.4"/>
</g>
<!-- μ -->
<g id="node6" class="node">
<title>μ</title>
<ellipse fill="none" stroke="black" cx="711.39" cy="-210.98" rx="56.39" ry="40.66"/>
<text text-anchor="middle" x="711.39" y="-222.43" font-family="Times,serif" font-size="14.00">μ</text>
<text text-anchor="middle" x="711.39" y="-205.93" font-family="Times,serif" font-size="14.00">~</text>
<text text-anchor="middle" x="711.39" y="-189.43" font-family="Times,serif" font-size="14.00">LogNormal</text>
</g>
<!-- μ&#45;&gt;likelihood -->
<g id="edge6" class="edge">
<title>μ&#45;&gt;likelihood</title>
<path fill="none" stroke="black" d="M711.39,-169.88C711.39,-158.34 711.39,-145.6 711.39,-133.48"/>
<polygon fill="black" stroke="black" points="714.89,-133.62 711.39,-123.62 707.89,-133.62 714.89,-133.62"/>
</g>
<!-- P0 -->
<g id="node7" class="node">
<title>P0</title>
<ellipse fill="none" stroke="black" cx="842.39" cy="-210.98" rx="56.39" ry="40.66"/>
<text text-anchor="middle" x="842.39" y="-222.43" font-family="Times,serif" font-size="14.00">P0</text>
<text text-anchor="middle" x="842.39" y="-205.93" font-family="Times,serif" font-size="14.00">~</text>
<text text-anchor="middle" x="842.39" y="-189.43" font-family="Times,serif" font-size="14.00">LogNormal</text>
</g>
<!-- P0&#45;&gt;likelihood -->
<g id="edge7" class="edge">
<title>P0&#45;&gt;likelihood</title>
<path fill="none" stroke="black" d="M812.98,-176.13C801.84,-163.76 788.84,-149.86 776.39,-137.82 771.49,-133.07 766.25,-128.24 760.96,-123.5"/>
<polygon fill="black" stroke="black" points="763.58,-121.15 753.77,-117.16 758.95,-126.4 763.58,-121.15"/>
</g>
<!-- Z0 -->
<g id="node8" class="node">
<title>Z0</title>
<ellipse fill="none" stroke="black" cx="973.39" cy="-210.98" rx="56.39" ry="40.66"/>
<text text-anchor="middle" x="973.39" y="-222.43" font-family="Times,serif" font-size="14.00">Z0</text>
<text text-anchor="middle" x="973.39" y="-205.93" font-family="Times,serif" font-size="14.00">~</text>
<text text-anchor="middle" x="973.39" y="-189.43" font-family="Times,serif" font-size="14.00">LogNormal</text>
</g>
<!-- Z0&#45;&gt;likelihood -->
<g id="edge5" class="edge">
<title>Z0&#45;&gt;likelihood</title>
<path fill="none" stroke="black" d="M947.74,-174.43C936.65,-161.27 922.7,-147.27 907.39,-137.82 874.53,-117.52 834.04,-104.41 798.4,-96.05"/>
<polygon fill="black" stroke="black" points="799.52,-92.71 788.99,-93.94 797.98,-99.54 799.52,-92.71"/>
</g>
<!-- k_N -->
<g id="node9" class="node">
<title>k_N</title>
<ellipse fill="none" stroke="black" cx="1104.39" cy="-210.98" rx="56.39" ry="40.66"/>
<text text-anchor="middle" x="1104.39" y="-222.43" font-family="Times,serif" font-size="14.00">k_N</text>
<text text-anchor="middle" x="1104.39" y="-205.93" font-family="Times,serif" font-size="14.00">~</text>
<text text-anchor="middle" x="1104.39" y="-189.43" font-family="Times,serif" font-size="14.00">LogNormal</text>
</g>
<!-- k_N&#45;&gt;likelihood -->
<g id="edge9" class="edge">
<title>k_N&#45;&gt;likelihood</title>
<path fill="none" stroke="black" d="M1079.86,-174.31C1068.75,-160.81 1054.49,-146.6 1038.39,-137.82 998.49,-116.06 883.5,-99.97 801.18,-90.84"/>
<polygon fill="black" stroke="black" points="801.61,-87.36 791.29,-89.76 800.85,-94.32 801.61,-87.36"/>
</g>
<!-- g_max -->
<g id="node10" class="node">
<title>g_max</title>
<ellipse fill="none" stroke="black" cx="1235.39" cy="-210.98" rx="56.39" ry="40.66"/>
<text text-anchor="middle" x="1235.39" y="-222.43" font-family="Times,serif" font-size="14.00">g_max</text>
<text text-anchor="middle" x="1235.39" y="-205.93" font-family="Times,serif" font-size="14.00">~</text>
<text text-anchor="middle" x="1235.39" y="-189.43" font-family="Times,serif" font-size="14.00">LogNormal</text>
</g>
<!-- g_max&#45;&gt;likelihood -->
<g id="edge10" class="edge">
<title>g_max&#45;&gt;likelihood</title>
<path fill="none" stroke="black" d="M1211.07,-173.92C1199.99,-160.36 1185.69,-146.21 1169.39,-137.82 1107.28,-105.84 917.15,-91.6 802.32,-85.77"/>
<polygon fill="black" stroke="black" points="802.78,-82.29 792.62,-85.29 802.43,-89.28 802.78,-82.29"/>
</g>
<!-- σ -->
<g id="node11" class="node">
<title>σ</title>
<ellipse fill="none" stroke="black" cx="1367.39" cy="-210.98" rx="57.45" ry="40.66"/>
<text text-anchor="middle" x="1367.39" y="-222.43" font-family="Times,serif" font-size="14.00">σ</text>
<text text-anchor="middle" x="1367.39" y="-205.93" font-family="Times,serif" font-size="14.00">~</text>
<text text-anchor="middle" x="1367.39" y="-189.43" font-family="Times,serif" font-size="14.00">Exponential</text>
</g>
<!-- σ&#45;&gt;likelihood -->
<g id="edge11" class="edge">
<title>σ&#45;&gt;likelihood</title>
<path fill="none" stroke="black" d="M1343.02,-174.08C1331.73,-160.37 1317.1,-146.06 1300.39,-137.82 1215.25,-95.81 945.92,-85.45 802.82,-82.93"/>
<polygon fill="black" stroke="black" points="803.05,-79.44 792.99,-82.77 802.93,-86.43 803.05,-79.44"/>
</g>
</g>
</svg>
