<?xml version="1.0" encoding="UTF-8" standalone="no"?>
<!DOCTYPE svg PUBLIC "-//W3C//DTD SVG 1.1//EN"
 "http://www.w3.org/Graphics/SVG/1.1/DTD/svg11.dtd">
<!-- Generated by graphviz version 12.0.0 (0)
 -->
<!-- Pages: 1 -->
<svg width="1433pt" height="247pt"
 viewBox="0.00 0.00 1432.84 247.13" xmlns="http://www.w3.org/2000/svg" xmlns:xlink="http://www.w3.org/1999/xlink">
<g id="graph0" class="graph" transform="scale(1 1) rotate(0) translate(4 243.13)">
<polygon fill="white" stroke="none" points="-4,4 -4,-243.13 1428.84,-243.13 1428.84,4 -4,4"/>
<g id="clust1" class="cluster">
<title>clustertime (101) x compartment (3)</title>
<path fill="none" stroke="black" d="M633.39,-8C633.39,-8 789.39,-8 789.39,-8 795.39,-8 801.39,-14 801.39,-20 801.39,-20 801.39,-117.82 801.39,-117.82 801.39,-123.82 795.39,-129.82 789.39,-129.82 789.39,-129.82 633.39,-129.82 633.39,-129.82 627.39,-129.82 621.39,-123.82 621.39,-117.82 621.39,-117.82 621.39,-20 621.39,-20 621.39,-14 627.39,-8 633.39,-8"/>
<text text-anchor="middle" x="711.27" y="-15.2" font-family="Times,serif" font-size="14.00">time (101) x compartment (3)</text>
</g>
<!-- m_Z -->
<g id="node1" class="node">
<title>m_Z</title>
<ellipse fill="none" stroke="black" cx="56.39" cy="-198.48" rx="56.39" ry="40.66"/>
<text text-anchor="middle" x="56.39" y="-209.93" font-family="Times,serif" font-size="14.00">m_Z</text>
<text text-anchor="middle" x="56.39" y="-193.43" font-family="Times,serif" font-size="14.00">~</text>
<text text-anchor="middle" x="56.39" y="-176.93" font-family="Times,serif" font-size="14.00">LogNormal</text>
</g>
<!-- likelihood -->
<g id="node12" class="node">
<title>likelihood</title>
<ellipse fill="none" stroke="black" cx="711.39" cy="-81.16" rx="79.73" ry="40.66"/>
<text text-anchor="middle" x="711.39" y="-92.61" font-family="Times,serif" font-size="14.00">likelihood</text>
<text text-anchor="middle" x="711.39" y="-76.11" font-family="Times,serif" font-size="14.00">~</text>
<text text-anchor="middle" x="711.39" y="-59.61" font-family="Times,serif" font-size="14.00">TruncatedNormal</text>
</g>
<!-- m_Z&#45;&gt;likelihood -->
<g id="edge1" class="edge">
<title>m_Z&#45;&gt;likelihood</title>
<path fill="none" stroke="black" d="M96.65,-169.75C104.87,-165.12 113.68,-160.84 122.39,-157.82 291.33,-99.12 501.77,-85.23 619.9,-82.38"/>
<polygon fill="black" stroke="black" points="619.95,-85.88 629.87,-82.16 619.8,-78.88 619.95,-85.88"/>
</g>
<!-- m_P -->
<g id="node2" class="node">
<title>m_P</title>
<ellipse fill="none" stroke="black" cx="187.39" cy="-198.48" rx="56.39" ry="40.66"/>
<text text-anchor="middle" x="187.39" y="-209.93" font-family="Times,serif" font-size="14.00">m_P</text>
<text text-anchor="middle" x="187.39" y="-193.43" font-family="Times,serif" font-size="14.00">~</text>
<text text-anchor="middle" x="187.39" y="-176.93" font-family="Times,serif" font-size="14.00">LogNormal</text>
</g>
<!-- m_P&#45;&gt;likelihood -->
<g id="edge2" class="edge">
<title>m_P&#45;&gt;likelihood</title>
<path fill="none" stroke="black" d="M228.09,-169.8C236.2,-165.22 244.86,-160.95 253.39,-157.82 375.87,-112.78 526.63,-94.45 620.91,-87.05"/>
<polygon fill="black" stroke="black" points="620.9,-90.57 630.61,-86.32 620.37,-83.59 620.9,-90.57"/>
</g>
<!-- r -->
<g id="node3" class="node">
<title>r</title>
<ellipse fill="none" stroke="black" cx="318.39" cy="-198.48" rx="56.39" ry="40.66"/>
<text text-anchor="middle" x="318.39" y="-209.93" font-family="Times,serif" font-size="14.00">r</text>
<text text-anchor="middle" x="318.39" y="-193.43" font-family="Times,serif" font-size="14.00">~</text>
<text text-anchor="middle" x="318.39" y="-176.93" font-family="Times,serif" font-size="14.00">LogNormal</text>
</g>
<!-- r&#45;&gt;likelihood -->
<g id="edge3" class="edge">
<title>r&#45;&gt;likelihood</title>
<path fill="none" stroke="black" d="M359.26,-170.24C367.36,-165.62 375.96,-161.22 384.39,-157.82 462.43,-126.26 556.52,-106.23 623.7,-94.76"/>
<polygon fill="black" stroke="black" points="623.88,-98.28 633.17,-93.18 622.73,-91.38 623.88,-98.28"/>
</g>
<!-- k_P -->
<g id="node4" class="node">
<title>k_P</title>
<ellipse fill="none" stroke="black" cx="449.39" cy="-198.48" rx="56.39" ry="40.66"/>
<text text-anchor="middle" x="449.39" y="-209.93" font-family="Times,serif" font-size="14.00">k_P</text>
<text text-anchor="middle" x="449.39" y="-193.43" font-family="Times,serif" font-size="14.00">~</text>
<text text-anchor="middle" x="449.39" y="-176.93" font-family="Times,serif" font-size="14.00">LogNormal</text>
</g>
<!-- k_P&#45;&gt;likelihood -->
<g id="edge4" class="edge">
<title>k_P&#45;&gt;likelihood</title>
<path fill="none" stroke="black" d="M491.39,-170.77C499.24,-166.21 507.47,-161.69 515.39,-157.82 553.72,-139.08 597.93,-121.67 634.66,-108.29"/>
<polygon fill="black" stroke="black" points="635.66,-111.65 643.88,-104.96 633.28,-105.06 635.66,-111.65"/>
</g>
<!-- N0 -->
<g id="node5" class="node">
<title>N0</title>
<ellipse fill="none" stroke="black" cx="580.39" cy="-198.48" rx="56.39" ry="40.66"/>
<text text-anchor="middle" x="580.39" y="-209.93" font-family="Times,serif" font-size="14.00">N0</text>
<text text-anchor="middle" x="580.39" y="-193.43" font-family="Times,serif" font-size="14.00">~</text>
<text text-anchor="middle" x="580.39" y="-176.93" font-family="Times,serif" font-size="14.00">LogNormal</text>
</g>
<!-- N0&#45;&gt;likelihood -->
<g id="edge8" class="edge">
<title>N0&#45;&gt;likelihood</title>
<path fill="none" stroke="black" d="M615.5,-166.57C630.21,-153.63 647.54,-138.37 663.4,-124.41"/>
<polygon fill="black" stroke="black" points="665.7,-127.04 670.89,-117.81 661.07,-121.79 665.7,-127.04"/>
</g>
<!-- μ -->
<g id="node6" class="node">
<title>μ</title>
<ellipse fill="none" stroke="black" cx="711.39" cy="-198.48" rx="56.39" ry="40.66"/>
<text text-anchor="middle" x="711.39" y="-209.93" font-family="Times,serif" font-size="14.00">μ</text>
<text text-anchor="middle" x="711.39" y="-193.43" font-family="Times,serif" font-size="14.00">~</text>
<text text-anchor="middle" x="711.39" y="-176.93" font-family="Times,serif" font-size="14.00">LogNormal</text>
</g>
<!-- μ&#45;&gt;likelihood -->
<g id="edge6" class="edge">
<title>μ&#45;&gt;likelihood</title>
<path fill="none" stroke="black" d="M711.39,-157.47C711.39,-149.69 711.39,-141.43 711.39,-133.34"/>
<polygon fill="black" stroke="black" points="714.89,-133.61 711.39,-123.61 707.89,-133.61 714.89,-133.61"/>
</g>
<!-- P0 -->
<g id="node7" class="node">
<title>P0</title>
<ellipse fill="none" stroke="black" cx="842.39" cy="-198.48" rx="56.39" ry="40.66"/>
<text text-anchor="middle" x="842.39" y="-209.93" font-family="Times,serif" font-size="14.00">P0</text>
<text text-anchor="middle" x="842.39" y="-193.43" font-family="Times,serif" font-size="14.00">~</text>
<text text-anchor="middle" x="842.39" y="-176.93" font-family="Times,serif" font-size="14.00">LogNormal</text>
</g>
<!-- P0&#45;&gt;likelihood -->
<g id="edge7" class="edge">
<title>P0&#45;&gt;likelihood</title>
<path fill="none" stroke="black" d="M807.29,-166.57C792.58,-153.63 775.24,-138.37 759.39,-124.41"/>
<polygon fill="black" stroke="black" points="761.71,-121.79 751.89,-117.81 757.08,-127.04 761.71,-121.79"/>
</g>
<!-- Z0 -->
<g id="node8" class="node">
<title>Z0</title>
<ellipse fill="none" stroke="black" cx="973.39" cy="-198.48" rx="56.39" ry="40.66"/>
<text text-anchor="middle" x="973.39" y="-209.93" font-family="Times,serif" font-size="14.00">Z0</text>
<text text-anchor="middle" x="973.39" y="-193.43" font-family="Times,serif" font-size="14.00">~</text>
<text text-anchor="middle" x="973.39" y="-176.93" font-family="Times,serif" font-size="14.00">LogNormal</text>
</g>
<!-- Z0&#45;&gt;likelihood -->
<g id="edge5" class="edge">
<title>Z0&#45;&gt;likelihood</title>
<path fill="none" stroke="black" d="M931.39,-170.77C923.54,-166.21 915.32,-161.69 907.39,-157.82 869.07,-139.08 824.85,-121.67 788.13,-108.29"/>
<polygon fill="black" stroke="black" points="789.5,-105.06 778.91,-104.96 787.12,-111.65 789.5,-105.06"/>
</g>
<!-- k_N -->
<g id="node9" class="node">
<title>k_N</title>
<ellipse fill="none" stroke="black" cx="1104.39" cy="-198.48" rx="56.39" ry="40.66"/>
<text text-anchor="middle" x="1104.39" y="-209.93" font-family="Times,serif" font-size="14.00">k_N</text>
<text text-anchor="middle" x="1104.39" y="-193.43" font-family="Times,serif" font-size="14.00">~</text>
<text text-anchor="middle" x="1104.39" y="-176.93" font-family="Times,serif" font-size="14.00">LogNormal</text>
</g>
<!-- k_N&#45;&gt;likelihood -->
<g id="edge9" class="edge">
<title>k_N&#45;&gt;likelihood</title>
<path fill="none" stroke="black" d="M1063.52,-170.24C1055.43,-165.62 1046.82,-161.22 1038.39,-157.82 960.35,-126.26 866.26,-106.23 799.09,-94.76"/>
<polygon fill="black" stroke="black" points="800.06,-91.38 789.62,-93.18 798.9,-98.28 800.06,-91.38"/>
</g>
<!-- g_max -->
<g id="node10" class="node">
<title>g_max</title>
<ellipse fill="none" stroke="black" cx="1235.39" cy="-198.48" rx="56.39" ry="40.66"/>
<text text-anchor="middle" x="1235.39" y="-209.93" font-family="Times,serif" font-size="14.00">g_max</text>
<text text-anchor="middle" x="1235.39" y="-193.43" font-family="Times,serif" font-size="14.00">~</text>
<text text-anchor="middle" x="1235.39" y="-176.93" font-family="Times,serif" font-size="14.00">LogNormal</text>
</g>
<!-- g_max&#45;&gt;likelihood -->
<g id="edge10" class="edge">
<title>g_max&#45;&gt;likelihood</title>
<path fill="none" stroke="black" d="M1194.69,-169.8C1186.58,-165.22 1177.92,-160.95 1169.39,-157.82 1046.92,-112.78 896.15,-94.45 801.88,-87.05"/>
<polygon fill="black" stroke="black" points="802.41,-83.59 792.17,-86.32 801.88,-90.57 802.41,-83.59"/>
</g>
<!-- σ -->
<g id="node11" class="node">
<title>σ</title>
<ellipse fill="none" stroke="black" cx="1367.39" cy="-198.48" rx="57.45" ry="40.66"/>
<text text-anchor="middle" x="1367.39" y="-209.93" font-family="Times,serif" font-size="14.00">σ</text>
<text text-anchor="middle" x="1367.39" y="-193.43" font-family="Times,serif" font-size="14.00">~</text>
<text text-anchor="middle" x="1367.39" y="-176.93" font-family="Times,serif" font-size="14.00">Exponential</text>
</g>
<!-- σ&#45;&gt;likelihood -->
<g id="edge11" class="edge">
<title>σ&#45;&gt;likelihood</title>
<path fill="none" stroke="black" d="M1326.49,-169.76C1318.14,-165.13 1309.21,-160.85 1300.39,-157.82 1131.26,-99.68 920.89,-85.59 802.83,-82.55"/>
<polygon fill="black" stroke="black" points="802.94,-79.05 792.86,-82.32 802.77,-86.05 802.94,-79.05"/>
</g>
</g>
</svg>
